<svg width="50" height="50" xmlns="http://www.w3.org/2000/svg">

 <g>
  <title>background</title>
  <rect fill="none" id="canvas_background" height="402" width="582" y="-1" x="-1"/>
 </g>
 <g>
  <title>Layer 1</title>
  <path fill="#ff0000" id="svg_1" d="m44,1l-38,0c-2.757,0 -5,2.243 -5,5l0,38c0,2.757 2.243,5 5,5l38,0c2.757,0 5,-2.243 5,-5l0,-38c0,-2.757 -2.243,-5 -5,-5zm3,43c0,1.654 -1.346,3 -3,3l-38,0c-1.654,0 -3,-1.346 -3,-3l0,-38c0,-1.654 1.346,-3 3,-3l38,0c1.654,0 3,1.346 3,3l0,38z"/>
  <polygon fill="#ff0000" id="svg_2" points="42.293,6.293 25,23.586 7.707,6.293 6.293,7.707 23.586,25 6.293,42.293 7.707,43.707 25,26.414 42.293,43.707    43.707,42.293 26.414,25 43.707,7.707  "/>
 </g>
</svg>